<?xml version="1.0" encoding="utf-8"?>
<svg width="225px" height="53px" viewbox="0 0 225 53" version="1.1" xmlns:xlink="http://www.w3.org/1999/xlink" xmlns="http://www.w3.org/2000/svg">
  <g id="virsat-logo">
    <g id="Group">
      <g id="Group">
        <path d="M23.1912 41.6319L12.4875 41.6319L12.4875 8.32639L0 8.32639L0 0L35.6852 0L35.6852 8.32639L23.1912 8.32639L23.1912 41.6319L23.1912 41.6319Z" transform="translate(178.19873 0)" id="Shape" fill="#0055B8" fill-rule="evenodd" stroke="none" />
        <path d="M11.5957 41.6319L0 41.6319L15.758 0L27.6574 0L43.4154 41.6319L31.82 41.6319L29.144 34.1977L14.2714 34.1977L11.5957 41.6319L11.5957 41.6319ZM16.9476 26.466L26.462 26.466L21.7048 12.4896L16.9476 26.466L16.9476 26.466Z" transform="translate(138.77026 0)" id="Shape" fill="#0055B8" fill-rule="evenodd" stroke="none" />
        <path d="M32.2326 19.4752C30.3503 17.5912 27.3283 16.6519 23.1653 16.6519L20.4842 16.6519L20.4842 16.6494L14.269 16.6494C11.8915 16.6494 10.702 15.4598 10.702 13.0806L10.702 11.8937C10.702 9.51441 11.8915 8.32489 14.269 8.32489L32.7609 8.32489L32.7609 0L11.8915 0C7.72854 0 4.7065 0.942029 2.82416 2.82331C0.940532 4.70736 0 7.72981 0 11.8934L0 13.6752C0 17.8389 0.940532 20.8613 2.82416 22.7454C4.7065 24.6294 7.72852 25.5687 11.8915 25.5687L14.5726 25.5687L14.5726 25.5712L20.7877 25.5712C23.1653 25.5712 24.3548 26.7608 24.3548 29.14L24.3548 30.327C24.3548 32.7062 23.1655 33.8957 20.7877 33.8957L0 33.8957L0 42.2204L23.1653 42.2204C27.3282 42.2204 30.3503 41.2784 32.2326 39.3971C34.1162 37.513 35.0568 34.4906 35.0568 30.327L35.0568 28.5451C35.0568 24.3817 34.1162 21.3593 32.2326 19.4752L32.2326 19.4752Z" transform="translate(103.71362 0)" id="Shape" fill="#0055B8" fill-rule="evenodd" stroke="none" />
        <g id="Group">
          <path d="M0.000215417 0L24.9817 0C29.1443 0 32.1627 0.930906 34.0501 2.8186C35.931 4.70629 36.8747 7.73174 36.8747 11.8949L36.8747 17.2476C36.8747 20.5317 36.3254 23.0917 35.2394 24.9146C34.147 26.7377 32.4149 27.9528 30.0363 28.5477L37.4694 41.6319L25.8737 41.6319L19.0288 29.1423L10.7037 29.1423L10.7037 41.6319L0 41.6319L0 0L0.000215417 0ZM26.171 11.8949C26.171 9.5159 24.9817 8.32638 22.5966 8.32638L10.7039 8.32638L10.7039 20.816L22.5966 20.816C24.9817 20.816 26.171 19.6264 26.171 17.2474L26.171 11.8949L26.171 11.8949Z" transform="translate(62.37036 0)" id="Shape" fill="#0055B8" fill-rule="evenodd" stroke="none" />
          <path d="M21.7047 29.1424L31.8202 0L43.4159 0L27.6576 41.6319L15.7582 41.6319L0 8.15975e-07L11.5957 8.15975e-07L21.7047 29.1424L21.7047 29.1424Z" id="Shape" fill="#0055B8" fill-rule="evenodd" stroke="none" />
          <path d="M10.7037 41.6319L0 41.6319L0 0L10.7037 0L10.7037 41.6319L10.7037 41.6319Z" transform="translate(45.614014 0)" id="Shape" fill="#0055B8" fill-rule="evenodd" stroke="none" />
        </g>
      </g>
      <g id="Group" transform="translate(17.53064 46.517895)">
        <g id="Group">
          <path d="M3.52319 6.32488L1.8971 6.32488L1.8971 1.26502L0 1.26502L0 0L5.42029 0L5.42029 1.26502L3.52319 1.26502L3.52319 6.32488L3.52319 6.32488Z" transform="translate(136.3263 0)" id="Shape" fill="#D9A728" fill-rule="evenodd" stroke="none" />
          <path d="M1.7617 6.32467L0 6.32467L2.39399 0L4.20083 0L6.59482 6.32467L4.83312 6.32467L4.42649 5.19526L2.16812 5.19526L1.7617 6.32467L1.7617 6.32467ZM2.57495 4.0205L4.02029 4.0205L3.29751 1.89731L2.57495 4.0205L2.57495 4.0205Z" transform="translate(149.75354 0.00022125244)" id="Shape" fill="#D9A728" fill-rule="evenodd" stroke="none" />
          <path d="M0 0L3.79418 0C4.42647 0 4.88614 0.141389 5.17277 0.428233C5.45747 0.715077 5.601 1.17454 5.601 1.80705L5.601 2.62031C5.601 3.11913 5.51844 3.50821 5.35352 3.78501C5.18667 4.06201 4.92337 4.24661 4.56209 4.33687L5.69127 6.32467L3.9298 6.32467L2.89088 4.42736L1.62608 4.42736L1.62608 6.32467L0 6.32467L0 0L0 0ZM3.97483 1.80726C3.97483 1.44576 3.79409 1.26523 3.4328 1.26523L1.62598 1.26523L1.62598 3.16254L3.4328 3.16254C3.79409 3.16254 3.97483 2.98179 3.97483 2.62051L3.97483 1.80726L3.97483 1.80726Z" transform="translate(142.97717 0)" id="Shape" fill="#D9A728" fill-rule="evenodd" stroke="none" />
          <path d="M1.62607 6.32467L0 6.32467L0 0L1.62607 0L1.62607 6.32467L1.62607 6.32467Z" transform="translate(157.43372 0.00022125244)" id="Shape" fill="#D9A728" fill-rule="evenodd" stroke="none" />
          <path d="M5.51074 6.32467L3.79419 6.32467L1.62608 2.52982L1.62608 6.32467L0 6.32467L0 0L1.71635 0L3.88445 3.79484L3.88445 0L5.51053 0L5.51053 6.32467L5.51074 6.32467Z" transform="translate(160.6637 0.00022125244)" id="Shape" fill="#D9A728" fill-rule="evenodd" stroke="none" />
          <path d="M5.51057 6.32467L3.79422 6.32467L1.62609 2.52982L1.62609 6.32467L0 6.32467L0 0L1.71636 0L3.88448 3.79484L3.88448 0L5.51057 0L5.51057 6.32467L5.51057 6.32467Z" transform="translate(171.09082 0.00022125244)" id="Shape" fill="#D9A728" fill-rule="evenodd" stroke="none" />
          <path d="M1.62607 6.32467L0 6.32467L0 0L1.62607 0L1.62607 6.32467L1.62607 6.32467Z" transform="translate(167.83826 0.00022125244)" id="Shape" fill="#D9A728" fill-rule="evenodd" stroke="none" />
          <path d="M5.63211 2.71079L2.83168 2.71079L2.83168 3.79506L4.00601 3.79506L4.00601 5.22329L2.08879 5.22307C1.96045 5.22307 1.85521 5.18179 1.77263 5.09922C1.6905 5.01687 1.64921 4.90521 1.64921 4.76489L1.64921 1.83272C1.64921 1.46609 1.83252 1.28277 2.19894 1.28277L5.6321 1.28277L5.6321 0L1.83252 0C1.19102 0 0.725347 0.145025 0.43508 0.435077C0.145244 0.725342 0 1.19101 0 1.8325L0 4.76468C0 5.36318 0.140322 5.80318 0.421176 6.08381C0.702029 6.3651 1.00749 6.41386 1.74075 6.41386C2.63872 6.41386 4.08364 6.41386 5.6321 6.41386L5.6321 2.71079L5.63211 2.71079Z" transform="translate(178.10681 0)" id="Shape" fill="#D9A728" fill-rule="evenodd" stroke="none" />
          <path d="M1.62609 6.32467L0 6.32467L0 0L5.01474 0L5.01474 1.26502L1.62609 1.26502L1.62609 2.75592L5.01474 2.75592L5.01474 4.02094L1.62609 4.02094L1.62609 6.32467L1.62609 6.32467Z" transform="translate(107.56604 0.00022125244)" id="Shape" fill="#D9A728" fill-rule="evenodd" stroke="none" />
          <path d="M5.01473 6.32467L0 6.32467L0 0L5.01473 0L5.01473 1.26502L1.62609 1.26502L1.62609 2.48469L5.01473 2.48469L5.01473 3.74971L1.62609 3.74971L1.62609 5.05986L5.01473 5.05986L5.01473 6.32467L5.01473 6.32467Z" transform="translate(113.815674 0.00022125244)" id="Shape" fill="#D9A728" fill-rule="evenodd" stroke="none" />
          <path d="M3.5232 6.32488L1.89711 6.32488L1.89711 1.26502L0 1.26502L0 0L5.42136 0L5.42136 1.26502L3.52318 1.26502L3.52318 6.32488L3.5232 6.32488Z" transform="translate(119.70349 0)" id="Shape" fill="#D9A728" fill-rule="evenodd" stroke="none" />
          <path d="M0 0L1.71636 0L3.20705 3.07207L4.6986 0L6.41496 0L4.0201 4.65323L4.0201 6.32467L2.39401 6.32467L2.39401 4.65323L0 0L0 0Z" transform="translate(125.6355 0)" id="Shape" fill="#D9A728" fill-rule="evenodd" stroke="none" />
          <path d="M1.76149 6.32467L0 6.32467L2.39401 0L4.20171 0L6.59573 6.32467L4.83423 6.32467L4.4276 5.19526L2.16814 5.19526L1.76149 6.32467L1.76149 6.32467ZM2.57458 4.0205L4.01994 4.0205L3.29715 1.89731L2.57458 4.0205L2.57458 4.0205Z" transform="translate(99.9176 0.00022125244)" id="Shape" fill="#D9A728" fill-rule="evenodd" stroke="none" />
          <path d="M4.89669 2.9587C4.6107 2.6725 4.15167 2.52983 3.51915 2.52983L3.11188 2.52983L3.11188 2.5294L2.16771 2.5294C1.80642 2.5294 1.62588 2.34865 1.62588 1.98716L1.62588 1.80684C1.62588 1.44534 1.80663 1.26459 2.16771 1.26459L4.97711 1.26459L4.97711 0L1.80663 0C1.17412 0 0.71507 0.143102 0.429087 0.428876C0.142881 0.715077 0 1.17433 0 1.80684L0 2.07764C0 2.71015 0.142894 3.1694 0.429087 3.4556C0.71507 3.7418 1.17411 3.88447 1.80663 3.88447L2.2139 3.88447L2.2139 3.8849L3.15807 3.8849C3.51936 3.8849 3.69989 4.06565 3.69989 4.42714L3.69989 4.60746C3.69989 4.96896 3.51915 5.14971 3.15807 5.14971L1.30556e-05 5.14971L1.30556e-05 6.4143L3.51937 6.4143C4.15188 6.4143 4.61093 6.2712 4.89691 5.98542C5.18312 5.69922 5.326 5.23997 5.326 4.60746L5.326 4.33666C5.32579 3.70415 5.18289 3.2449 4.89669 2.9587L4.89669 2.9587Z" transform="translate(93.989624 0)" id="Shape" fill="#D9A728" fill-rule="evenodd" stroke="none" />
          <path d="M5.01475 6.32467L0 6.32467L0 0L5.01475 0L5.01475 1.26502L1.62609 1.26502L1.62609 2.48469L5.01475 2.48469L5.01475 3.74971L1.62609 3.74971L1.62609 5.05986L5.01475 5.05986L5.01475 6.32467L5.01475 6.32467Z" transform="translate(54.78369 0.00022125244)" id="Shape" fill="#D9A728" fill-rule="evenodd" stroke="none" />
          <path d="M1.7617 6.32467L0 6.32467L2.394 0L4.20169 0L6.59569 6.32467L4.83399 6.32467L4.42736 5.19526L2.1679 5.19526L1.7617 6.32467L1.7617 6.32467ZM2.57458 4.0205L4.01992 4.0205L3.29715 1.89731L2.57458 4.0205L2.57458 4.0205Z" transform="translate(60.490112 0.00022125244)" id="Shape" fill="#D9A728" fill-rule="evenodd" stroke="none" />
          <path d="M1.62609 5.05965L4.92448 5.05965L4.92448 6.32467L0 6.32467L0 0L1.62609 0L1.62609 5.05965L1.62609 5.05965Z" transform="translate(68.13953 0.00022125244)" id="Shape" fill="#D9A728" fill-rule="evenodd" stroke="none" />
          <path d="M3.52319 6.32488L1.8971 6.32488L1.8971 1.26502L0 1.26502L0 0L5.42136 0L5.42136 1.26502L3.52319 1.26502L3.52319 6.32488L3.52319 6.32488Z" transform="translate(77.45105 0)" id="Shape" fill="#D9A728" fill-rule="evenodd" stroke="none" />
          <path d="M0 0L1.71636 0L3.20705 3.07207L4.6986 0L6.41496 0L4.02009 4.65323L4.02009 6.32467L2.394 6.32467L2.394 4.65323L0 0L0 0Z" transform="translate(83.384155 0)" id="Shape" fill="#D9A728" fill-rule="evenodd" stroke="none" />
          <path d="M1.62607 6.32467L0 6.32467L0 0L1.62607 0L1.62607 6.32467L1.62607 6.32467Z" transform="translate(74.46533 0.00022125244)" id="Shape" fill="#D9A728" fill-rule="evenodd" stroke="none" />
          <path d="M0 0L3.79527 0C4.42756 0 4.88617 0.141389 5.17302 0.428233C5.45879 0.715077 5.60211 1.17454 5.60211 1.80705L5.60211 2.62031C5.60211 3.11913 5.51868 3.50821 5.35376 3.78501C5.18777 4.06201 4.92467 4.24661 4.56339 4.33687L5.69258 6.32467L3.93088 6.32467L2.89111 4.42736L1.6263 4.42736L1.6263 6.32467L0.000221944 6.32467L0.000221944 0L0 0ZM3.9759 1.80726C3.9759 1.44576 3.79516 1.26523 3.43281 1.26523L1.62598 1.26523L1.62598 3.16254L3.43281 3.16254C3.79516 3.16254 3.9759 2.98179 3.9759 2.62051L3.9759 1.80726L3.9759 1.80726Z" transform="translate(47.67627 0)" id="Shape" fill="#D9A728" fill-rule="evenodd" stroke="none" />
          <path d="M0 0L3.79528 0C4.42757 0 4.88619 0.141389 5.17303 0.428233C5.4588 0.715077 5.60212 1.17454 5.60212 1.80705L5.60212 2.62031C5.60212 3.11913 5.51869 3.50821 5.35377 3.78501C5.18779 4.06201 4.92469 4.24661 4.5634 4.33687L5.6926 6.32467L3.93089 6.32467L2.89111 4.42736L1.62631 4.42736L1.62631 6.32467L0.000215417 6.32467L0.000215417 0L0 0ZM3.97592 1.80726C3.97592 1.44576 3.79517 1.26523 3.43282 1.26523L1.62598 1.26523L1.62598 3.16254L3.43282 3.16254C3.79517 3.16254 3.97592 2.98179 3.97592 2.62051L3.97592 1.80726L3.97592 1.80726Z" transform="translate(10.679565 0)" id="Shape" fill="#D9A728" fill-rule="evenodd" stroke="none" />
          <path d="M3.5232 6.32488L1.8971 6.32488L1.8971 1.26502L0 1.26502L0 0L5.42137 0L5.42137 1.26502L3.5232 1.26502L3.5232 6.32488L3.5232 6.32488Z" transform="translate(17.335327 0)" id="Shape" fill="#D9A728" fill-rule="evenodd" stroke="none" />
          <path d="M4.06629 0L5.69238 0L5.69238 4.6081C5.69238 5.24061 5.54907 5.70029 5.2633 5.98499C4.97667 6.27184 4.51806 6.41515 3.88555 6.41515L1.80684 6.41515C1.17454 6.41515 0.714863 6.27183 0.429089 5.98499C0.143315 5.70029 0 5.24061 0 4.6081L0 0L1.62609 0L1.62609 4.6081C1.62609 4.9696 1.80684 5.15013 2.16812 5.15013L3.52427 5.15013C3.88555 5.15013 4.0663 4.96938 4.0663 4.6081L4.0663 0L4.06629 0Z" transform="translate(23.990845 0)" id="Shape" fill="#D9A728" fill-rule="evenodd" stroke="none" />
          <path d="M1.7617 6.32467L0 6.32467L2.394 0L4.20169 0L6.59569 6.32467L4.83399 6.32467L4.42736 5.19526L2.16833 5.19526L1.7617 6.32467L1.7617 6.32467ZM2.57458 4.0205L4.01993 4.0205L3.29715 1.89731L2.57458 4.0205L2.57458 4.0205Z" transform="translate(30.555542 0.00022125244)" id="Shape" fill="#D9A728" fill-rule="evenodd" stroke="none" />
          <path d="M1.62608 5.05965L4.92446 5.05965L4.92446 6.32467L0 6.32467L0 0L1.62608 0L1.62608 5.05965L1.62608 5.05965Z" transform="translate(38.204834 0.00022125244)" id="Shape" fill="#D9A728" fill-rule="evenodd" stroke="none" />
          <path d="M3.29731 4.42735L4.83399 0L6.5957 0L4.20169 6.32467L2.394 6.32467L0 0L1.7617 0L3.29731 4.42735L3.29731 4.42735Z" id="Shape" fill="#D9A728" fill-rule="evenodd" stroke="none" />
          <path d="M1.62609 6.32467L0 6.32467L0 0L1.62609 0L1.62609 6.32467L1.62609 6.32467Z" transform="translate(7.531616 0.00022125244)" id="Shape" fill="#D9A728" fill-rule="evenodd" stroke="none" />
        </g>
      </g>
      <g id="Group" transform="translate(217.45166 0.00021362305)">
        <path d="M6.2511 6.31698C5.53623 7.00896 4.67785 7.35484 3.67678 7.35484C2.64234 7.35484 1.77112 7.0004 1.06246 6.29217C0.353805 5.58351 0 4.71207 0 3.67721C0 2.60277 0.382449 1.70973 1.14737 0.997858C1.86566 0.332405 2.70887 0 3.67676 0C4.6913 0 5.55759 0.359357 6.2763 1.07786C6.99459 1.79636 7.35393 2.66309 7.35393 3.67742C7.35398 4.72212 6.98607 5.6019 6.2511 6.31698L6.2511 6.31698ZM1.51674 1.54673C0.931273 2.14544 0.638672 2.85582 0.638672 3.6772C0.638672 4.52875 0.936208 5.2526 1.53172 5.84789C2.12358 6.44361 2.83887 6.74115 3.67696 6.74115C4.5116 6.74115 5.2254 6.4419 5.81747 5.84276C6.40933 5.24083 6.70517 4.51891 6.70517 3.67699C6.70517 2.85881 6.41084 2.14844 5.82217 1.54652C5.2271 0.93454 4.51181 0.628445 3.67693 0.628445C2.83221 0.628658 2.11223 0.934754 1.51674 1.54673L1.51674 1.54673ZM2.06543 5.72319L2.06543 1.64641C2.31805 1.64641 2.69643 1.64748 3.2004 1.64919C3.70434 1.6509 3.98457 1.65326 4.04126 1.65668C4.3636 1.67978 4.63142 1.74994 4.84446 1.8663C5.2068 2.06566 5.3882 2.39015 5.3882 2.83914C5.3882 3.18181 5.29258 3.42929 5.10137 3.58181C4.90971 3.73389 4.67463 3.82501 4.39506 3.85453C4.65132 3.90822 4.84425 3.98672 4.97389 4.09047C5.21346 4.28405 5.33326 4.58908 5.33326 5.0049L5.33326 5.36939C5.33326 5.40939 5.33603 5.44897 5.34138 5.48875C5.34673 5.52875 5.35658 5.56854 5.37089 5.60854L5.40809 5.7234L4.39057 5.7234C4.35699 5.59378 4.33454 5.40597 4.3232 5.15977C4.31143 4.91357 4.28897 4.74736 4.25584 4.66073C4.20257 4.51785 4.1029 4.41774 3.95658 4.36148C3.87678 4.32833 3.75529 4.30651 3.5923 4.29646L3.35788 4.2817L3.1335 4.2817L3.1335 5.72362L2.06543 5.72362L2.06543 5.72319ZM4.01076 2.44983C3.86445 2.39336 3.65846 2.36534 3.39237 2.36534L3.13269 2.36534L3.13269 3.54779L3.54702 3.54779C3.79623 3.54779 3.99086 3.49774 4.13055 3.39806C4.27046 3.29817 4.34017 3.1371 4.34017 2.91378C4.34017 2.6909 4.23066 2.53625 4.01076 2.44983L4.01076 2.44983Z" id="Shape" fill="#0055B8" fill-rule="evenodd" stroke="none" />
      </g>
    </g>
  </g>
</svg>